<?xml version="1.0" encoding="utf-8"?>
<!-- Generator: Adobe Illustrator 16.0.0, SVG Export Plug-In . SVG Version: 6.00 Build 0)  -->
<!DOCTYPE svg PUBLIC "-//W3C//DTD SVG 1.1//EN" "http://www.w3.org/Graphics/SVG/1.1/DTD/svg11.dtd">
<svg version="1.1" id="Calque_2" xmlns="http://www.w3.org/2000/svg" xmlns:xlink="http://www.w3.org/1999/xlink" x="0px" y="0px"
	 width="224px" height="224px" viewBox="0 0 224 224" enable-background="new 0 0 224 224" xml:space="preserve">
<path fill="#D01028" d="M106,0.62c1.427,0.216,2.457,0.374,3.486,0.53c0.028-0.208,0.057-0.415,0.084-0.624
	C108.439,1.12,107.612-0.993,106,0.62 M219.856,86.987c-0.307-2.202-0.759-4.384-1.193-6.566c-0.16-0.803-0.4-1.598-0.688-2.365
	c-0.654-1.745-1.85-3.445-1.938-5.207c-0.146-2.933-1.942-5.104-2.9-7.62c-0.521-1.364-2.207-2.282-1.672-4.189
	c0.058-0.205-0.353-0.611-0.623-0.83c-2.664-2.166-3.758-5.412-5.568-8.157c-1.361-2.065-2.265-4.427-3.546-6.552
	c-2.35-3.897-5.786-6.843-9.075-9.895c-1.465-1.359-3.124-2.508-4.646-3.807c-2.124-1.812-4.222-3.655-6.295-5.525
	c-1.721-1.551-3.538-3.034-5.045-4.777c-1.895-2.193-4.104-3.678-6.916-4.333c-0.948-0.22-1.929-0.464-2.779-0.916
	c-1.962-1.042-3.835-2.251-5.778-3.329c-1.759-0.975-3.525-1.952-5.358-2.768c-1.857-0.825-3.764-1.589-5.716-2.132
	c-2.434-0.677-4.975-0.973-7.401-1.671c-2.729-0.785-5.326-2.08-8.082-2.712c-4.553-1.044-9.171-1.837-13.793-2.532
	c-3.001-0.452-6.058-0.54-9.089-0.791c-0.016,0.171-0.031,0.342-0.048,0.513c1.7,0.583,3.377,1.51,5.108,1.631
	c1.227,0.087,2.052,0.629,3.073,0.989c2.491,0.88,5.118,1.375,7.607,2.262c1.471,0.525,2.801,1.47,4.158,2.286
	c0.923,0.557,1.739,1.298,2.684,1.808c0.941,0.508,2.044,0.728,2.972,1.255c2.586,1.469,4.969,3.307,7.992,3.917
	c0.713,0.144,1.355,0.701,2,1.116c1.397,0.9,2.742,1.89,4.171,2.737c2.165,1.284,4.474,2.344,6.557,3.743
	c2.48,1.665,4.781,3.598,7.174,5.396c2.592,1.947,5.761,2.917,8.163,5.274c3.435,3.371,7.592,5.963,10.623,9.81
	c1.003,1.273,2.433,2.202,3.559,3.39c0.508,0.536,0.712,1.347,1.128,1.983c0.383,0.584,0.88,1.09,1.302,1.649
	c0.748,0.99,1.983,1.939,2.096,3.003c0.179,1.666,1.263,2.757,1.807,4.153c0.158,0.404,0.947,0.524,1.362,0.876
	c0.412,0.349,0.84,0.775,1.044,1.259c0.368,0.871,0.437,1.885,0.884,2.7c0.517,0.941,1.294,1.742,1.985,2.583
	c0.701,0.852,1.199,1.64,0.436,2.796c-0.231,0.349,0.057,1.165,0.299,1.676c0.438,0.922,1.147,1.726,1.511,2.67
	c0.629,1.631,1.081,3.331,1.604,5.001c0.565,1.808,1.255,3.586,1.66,5.429c0.712,3.248,1.232,6.537,1.873,9.8
	c0.097,0.495,0.369,0.971,0.633,1.414c0.792,1.326,2.152,1.503,3.452,2.088c2.783,1.249,4.613-0.351,6.793-1.101
	c0.788-0.27,1.166-0.738,1.106-1.63c-0.028-0.431,0.137-1.001,0.428-1.306C220.214,90.156,220.075,88.551,219.856,86.987"/>
</svg>
